# xmcd
#
# Track frame offsets: 
#        150
#        15780
#        31010
#        46625
#        62192
#        73755
#        89190
#        104275
#        117247
#        130632
#        141930
#        154095
#        170302
#        182100
#        194920
#        209060
#
# Disc length: 2992 seconds
#
# Revision: 0
# Processed by: cddbd v1.5.2PL0 Copyright (c) Steve Scherf et al.
# Submitted via: ExactAudioCopy v1.0b1
#
DISCID=e30bae10
DTITLE=ディック・ミネ - 定番ベスト
DYEAR=1900
DGENRE=Oldies
TTITLE0=人生の並木路
TTITLE1=夜霧のブルース
TTITLE2=旅姿三人男
TTITLE3=雨の酒場で
TTITLE4=上海ブルース
TTITLE5=或る雨の午后
TTITLE6=愛の小窓
TTITLE7=ゆかりの唄（台詞:岡田茉莉子）
TTITLE8=ダイナ
TTITLE9=アイルランドの娘
TTITLE10=上海リル
TTITLE11=黒い瞳
TTITLE12=林檎の樹の下で
TTITLE13=奥様お手をどうぞ
TTITLE14=二人は若い（デュエット:星 玲子）
TTITLE15=長崎エレジー（デュエット:藤原千多歌）
EXTD=
EXTT0=
EXTT1=
EXTT2=
EXTT3=
EXTT4=
EXTT5=
EXTT6=
EXTT7=
EXTT8=
EXTT9=
EXTT10=
EXTT11=
EXTT12=
EXTT13=
EXTT14=
EXTT15=
PLAYORDER=
